<svg xmlns="http://www.w3.org/2000/svg" viewBox="0 0 32 32">
  <rect width="32" height="32" rx="6" fill="#030806"/>
  <ellipse cx="15" cy="26.8" rx="9.2" ry="1.5" fill="#ff3355"/>
  <path d="M9 13.2h12.6c.45 0 .78.4.7.84l-1.35 9.4c-.2 1.35-1.35 2.36-2.72 2.36h-5.86c-1.37 0-2.52-1-2.72-2.36l-1.35-9.4c-.08-.44.25-.84.7-.84z" fill="#e8d5b5"/>
  <ellipse cx="15.3" cy="13.1" rx="6.6" ry="3.15" fill="#3dff6a"/>
  <ellipse cx="13.7" cy="12.3" rx="2.1" ry="1.05" fill="#c8ffd4"/>
  <path d="M21.8 15.1c3.15.15 4.7 1.55 4.7 4.05 0 2.35-1.7 3.75-4.55 3.95" fill="none" stroke="#e8d5b5" stroke-width="2.2" stroke-linecap="round"/>
  <path d="M13.4 5.2c.15 1.6-.55 2.2-.15 3.5" fill="none" stroke="#3dff6a" stroke-width="1.5" stroke-linecap="round"/>
  <path d="M17.2 4.6c.2 1.7-.5 2.35-.1 3.7" fill="none" stroke="#c8ffd4" stroke-width="1.5" stroke-linecap="round"/>
</svg>
